REM DIRINDEX 1\2\5,1\2\6,1\2\7,1\2\8,1\3\9,1\3\10,1\3\11,1\4\12,1\4\13,1\4\14,1\4\15,1\4\16
REM DIRNAME cjc034,folder01,folder02,folder03,folder04,folder05,folder06,folder07,folder08,folder09,folder10,folder11,folder12,folder13,folder14,folder15
TITLE ""
FILE "1200_sec03_0720_0728.mp3" MP3
  TRACK 01 AUDIO
    TITLE "0:"
    INDEX 01 00:00:00
  TRACK 02 AUDIO
    TITLE "12:cjc034_06539"
    INDEX 01 00:00:19
  TRACK 03 AUDIO
    TITLE "0:"
    INDEX 01 00:01:28
  TRACK 04 AUDIO
    TITLE "13:cjc034_06540"
    INDEX 01 00:01:64
  TRACK 05 AUDIO
    TITLE "0:"
    INDEX 01 00:02:63
  TRACK 06 AUDIO
    TITLE "14:cjc034_06541"
    INDEX 01 00:03:19
  TRACK 07 AUDIO
    TITLE "0:"
    INDEX 01 00:04:29
  TRACK 08 AUDIO
    TITLE "15:cjc034_06542"
    INDEX 01 00:04:64
  TRACK 09 AUDIO
    TITLE "0:"
    INDEX 01 00:08:62
  TRACK 10 AUDIO
    TITLE "12:cjc034_06543"
    INDEX 01 00:10:21
  TRACK 11 AUDIO
    TITLE "0:"
    INDEX 01 00:11:27
  TRACK 12 AUDIO
    TITLE "13:cjc034_06544"
    INDEX 01 00:11:58
  TRACK 13 AUDIO
    TITLE "0:"
    INDEX 01 00:15:56
  TRACK 14 AUDIO
    TITLE "14:cjc034_06545"
    INDEX 01 00:16:16
  TRACK 15 AUDIO
    TITLE "0:"
    INDEX 01 00:17:23
  TRACK 16 AUDIO
    TITLE "15:cjc034_06546"
    INDEX 01 00:17:57
  TRACK 17 AUDIO
    TITLE "0:"
    INDEX 01 00:20:63
  TRACK 18 AUDIO
    TITLE "12:cjc034_06547"
    INDEX 01 00:22:21
  TRACK 19 AUDIO
    TITLE "0:"
    INDEX 01 00:23:26
  TRACK 20 AUDIO
    TITLE "13:cjc034_06548"
    INDEX 01 00:23:61
  TRACK 21 AUDIO
    TITLE "0:"
    INDEX 01 00:26:42
  TRACK 22 AUDIO
    TITLE "14:cjc034_06549"
    INDEX 01 00:26:73
  TRACK 23 AUDIO
    TITLE "0:"
    INDEX 01 00:28:06
  TRACK 24 AUDIO
    TITLE "15:cjc034_06550"
    INDEX 01 00:28:39
  TRACK 25 AUDIO
    TITLE "0:"
    INDEX 01 00:31:14
  TRACK 26 AUDIO
    TITLE "12:cjc034_06551"
    INDEX 01 00:32:47
  TRACK 27 AUDIO
    TITLE "0:"
    INDEX 01 00:33:71
  TRACK 28 AUDIO
    TITLE "13:cjc034_06552"
    INDEX 01 00:34:28
  TRACK 29 AUDIO
    TITLE "0:"
    INDEX 01 00:35:33
  TRACK 30 AUDIO
    TITLE "14:cjc034_06553"
    INDEX 01 00:35:66
  TRACK 31 AUDIO
    TITLE "0:"
    INDEX 01 00:37:16
  TRACK 32 AUDIO
    TITLE "15:cjc034_06554"
    INDEX 01 00:37:48
  TRACK 33 AUDIO
    TITLE "0:"
    INDEX 01 00:43:15
  TRACK 34 AUDIO
    TITLE "12:cjc034_06555"
    INDEX 01 00:44:46
  TRACK 35 AUDIO
    TITLE "0:"
    INDEX 01 00:45:51
  TRACK 36 AUDIO
    TITLE "13:cjc034_06556"
    INDEX 01 00:46:07
  TRACK 37 AUDIO
    TITLE "0:"
    INDEX 01 00:48:14
  TRACK 38 AUDIO
    TITLE "14:cjc034_06557"
    INDEX 01 00:48:46
  TRACK 39 AUDIO
    TITLE "0:"
    INDEX 01 00:49:47
  TRACK 40 AUDIO
    TITLE "15:cjc034_06558"
    INDEX 01 00:50:05
  TRACK 41 AUDIO
    TITLE "0:"
    INDEX 01 00:53:33
  TRACK 42 AUDIO
    TITLE "12:cjc034_06559"
    INDEX 01 00:54:68
  TRACK 43 AUDIO
    TITLE "0:"
    INDEX 01 00:55:67
  TRACK 44 AUDIO
    TITLE "13:cjc034_06560"
    INDEX 01 00:56:25
  TRACK 45 AUDIO
    TITLE "0:"
    INDEX 01 00:57:27
  TRACK 46 AUDIO
    TITLE "14:cjc034_06561"
    INDEX 01 00:57:62
  TRACK 47 AUDIO
    TITLE "0:"
    INDEX 01 00:58:60
  TRACK 48 AUDIO
    TITLE "15:cjc034_06562"
    INDEX 01 00:59:20
  TRACK 49 AUDIO
    TITLE "0:"
    INDEX 01 01:03:12
  TRACK 50 AUDIO
    TITLE "12:cjc034_06563"
    INDEX 01 01:04:45
  TRACK 51 AUDIO
    TITLE "0:"
    INDEX 01 01:05:56
  TRACK 52 AUDIO
    TITLE "13:cjc034_06564"
    INDEX 01 01:06:18
  TRACK 53 AUDIO
    TITLE "0:"
    INDEX 01 01:07:21
  TRACK 54 AUDIO
    TITLE "14:cjc034_06565"
    INDEX 01 01:07:55
  TRACK 55 AUDIO
    TITLE "0:"
    INDEX 01 01:08:66
  TRACK 56 AUDIO
    TITLE "15:cjc034_06566"
    INDEX 01 01:09:30
  TRACK 57 AUDIO
    TITLE "0:"
    INDEX 01 01:12:42
  TRACK 58 AUDIO
    TITLE "12:cjc034_06567"
    INDEX 01 01:14:16
  TRACK 59 AUDIO
    TITLE "0:"
    INDEX 01 01:15:21
  TRACK 60 AUDIO
    TITLE "13:cjc034_06568"
    INDEX 01 01:15:56
  TRACK 61 AUDIO
    TITLE "0:"
    INDEX 01 01:17:04
  TRACK 62 AUDIO
    TITLE "14:cjc034_06569"
    INDEX 01 01:17:33
  TRACK 63 AUDIO
    TITLE "0:"
    INDEX 01 01:18:39
  TRACK 64 AUDIO
    TITLE "15:cjc034_06570"
    INDEX 01 01:18:74
  TRACK 65 AUDIO
    TITLE "0:"
    INDEX 01 01:22:54
  TRACK 66 AUDIO
    TITLE "12:cjc034_06571"
    INDEX 01 01:24:12
  TRACK 67 AUDIO
    TITLE "0:"
    INDEX 01 01:25:29
  TRACK 68 AUDIO
    TITLE "13:cjc034_06572"
    INDEX 01 01:25:62
  TRACK 69 AUDIO
    TITLE "0:"
    INDEX 01 01:26:50
  TRACK 70 AUDIO
    TITLE "14:cjc034_06573"
    INDEX 01 01:27:08
  TRACK 71 AUDIO
    TITLE "0:"
    INDEX 01 01:28:27
  TRACK 72 AUDIO
    TITLE "15:cjc034_06574"
    INDEX 01 01:28:57
  TRACK 73 AUDIO
    TITLE "0:"
    INDEX 01 01:31:57
